<svg width="2131" height="488" viewBox="0 0 2131 488" fill="none" xmlns="http://www.w3.org/2000/svg">
<path d="M25.1139 386C18.3979 386 13.5799 383.226 10.6599 377.678C7.73986 372.13 7.44786 366.728 9.78386 361.472L138.556 55.748C141.768 47.864 147.316 43.922 155.2 43.922C162.792 43.922 168.194 47.864 171.406 55.748L300.616 361.91C303.244 367.458 302.806 372.86 299.302 378.116C296.09 383.372 291.418 386 285.286 386C281.782 386 278.57 385.124 275.65 383.372C273.022 381.62 270.832 378.992 269.08 375.488L148.63 83.342H162.208L40.8819 375.488C39.4219 378.992 37.2319 381.62 34.3119 383.372C31.6839 385.124 28.6179 386 25.1139 386ZM54.0219 304.532L67.1619 275.186H244.99L258.13 304.532H54.0219ZM460.068 386C455.396 386 451.308 384.394 447.804 381.182C444.592 377.678 442.986 373.59 442.986 368.918V43.922H477.15V368.918C477.15 373.59 475.544 377.678 472.332 381.182C469.12 384.394 465.032 386 460.068 386ZM339.18 75.02C334.508 75.02 330.712 73.56 327.792 70.64C324.872 67.72 323.412 64.07 323.412 59.69C323.412 55.018 324.872 51.222 327.792 48.302C330.712 45.382 334.508 43.922 339.18 43.922H581.394C586.066 43.922 589.862 45.382 592.782 48.302C595.702 51.222 597.162 55.018 597.162 59.69C597.162 64.07 595.702 67.72 592.782 70.64C589.862 73.56 586.066 75.02 581.394 75.02H339.18Z" fill="white"/>
<path d="M968.628 227.5C968.628 286.199 957.904 338.979 940.879 376.803C923.537 415.331 901.126 435.5 879.128 435.5C857.131 435.5 834.72 415.331 817.378 376.803C800.353 338.979 789.628 286.199 789.628 227.5C789.628 168.801 800.353 116.021 817.378 78.1969C834.72 39.6694 857.131 19.5 879.128 19.5C901.126 19.5 923.537 39.6694 940.879 78.1969C957.904 116.021 968.628 168.801 968.628 227.5Z" stroke="white" stroke-width="15"/>
<path d="M923.878 305.009C873.043 334.359 821.972 351.461 780.703 355.629C738.667 359.874 709.994 350.55 698.995 331.5C687.996 312.45 694.258 282.957 718.953 248.674C743.197 215.018 783.543 179.34 834.378 149.991C885.213 120.641 936.284 103.539 977.554 99.3712C1019.59 95.126 1048.26 104.45 1059.26 123.5C1070.26 142.55 1064 172.044 1039.3 206.326C1015.06 239.982 974.713 275.66 923.878 305.009Z" stroke="white" stroke-width="15"/>
<path d="M923.878 305.009C873.043 334.359 821.972 351.461 780.703 355.629C738.667 359.874 709.994 350.55 698.995 331.5C687.996 312.45 694.258 282.957 718.953 248.674C743.197 215.018 783.543 179.34 834.378 149.991C885.213 120.641 936.284 103.539 977.554 99.3712C1019.59 95.126 1048.26 104.45 1059.26 123.5C1070.26 142.55 1064 172.044 1039.3 206.326C1015.06 239.982 974.713 275.66 923.878 305.009Z" stroke="white" stroke-width="15"/>
<path d="M834.378 305.009C783.543 275.66 743.197 239.982 718.953 206.326C694.258 172.043 687.996 142.55 698.995 123.5C709.994 104.45 738.667 95.1258 780.703 99.3711C821.972 103.539 873.043 120.641 923.878 149.991C974.713 179.34 1015.06 215.018 1039.3 248.674C1064 282.956 1070.26 312.45 1059.26 331.5C1048.26 350.55 1019.59 359.874 977.554 355.629C936.284 351.461 885.213 334.359 834.378 305.009Z" stroke="white" stroke-width="15"/>
<circle cx="879.128" cy="228" r="23" fill="white"/>
<circle cx="696" cy="299" r="23" fill="white"/>
<circle cx="1062" cy="299" r="23" fill="white"/>
<circle cx="879" cy="23" r="23" fill="white"/>
<path d="M1215.35 386C1210.68 386 1206.59 384.394 1203.09 381.182C1199.87 377.678 1198.27 373.59 1198.27 368.918V61.004C1198.27 56.04 1199.87 51.952 1203.09 48.74C1206.59 45.528 1210.68 43.922 1215.35 43.922C1222.36 43.922 1227.47 46.842 1230.68 52.682L1378.29 346.142H1363.39L1508.37 52.682C1511.88 46.842 1516.99 43.922 1523.7 43.922C1528.37 43.922 1532.32 45.528 1535.53 48.74C1538.74 51.952 1540.35 56.04 1540.35 61.004V368.918C1540.35 373.59 1538.74 377.678 1535.53 381.182C1532.32 384.394 1528.37 386 1523.7 386C1518.74 386 1514.5 384.394 1511 381.182C1507.79 377.678 1506.18 373.59 1506.18 368.918V105.242L1513.63 105.68L1384.42 369.794C1381.21 375.342 1376.24 378.116 1369.53 378.116C1362.23 378.116 1356.97 374.612 1353.76 367.604L1223.67 107.432L1232.43 105.242V368.918C1232.43 373.59 1230.68 377.678 1227.18 381.182C1223.96 384.394 1220.02 386 1215.35 386ZM1689.02 386C1684.06 386 1679.97 384.394 1676.76 381.182C1673.55 377.97 1671.94 373.882 1671.94 368.918V61.004C1671.94 56.04 1673.55 51.952 1676.76 48.74C1679.97 45.528 1684.06 43.922 1689.02 43.922C1693.99 43.922 1698.08 45.528 1701.29 48.74C1704.5 51.952 1706.11 56.04 1706.11 61.004V368.918C1706.11 373.882 1704.5 377.97 1701.29 381.182C1698.08 384.394 1693.99 386 1689.02 386ZM1991.38 390.38C1967.73 390.38 1945.54 385.854 1924.81 376.802C1904.37 367.75 1886.26 355.194 1870.5 339.134C1855.02 322.782 1842.9 304.094 1834.14 283.07C1825.38 261.754 1821 238.978 1821 214.742C1821 190.798 1825.24 168.314 1833.7 147.29C1842.46 125.974 1854.58 107.286 1870.06 91.226C1885.83 75.166 1903.93 62.61 1924.37 53.558C1945.1 44.214 1967.44 39.542 1991.38 39.542C2012.41 39.542 2031.53 42.608 2048.76 48.74C2065.99 54.872 2082.63 64.654 2098.69 78.086C2101.32 80.13 2102.78 82.612 2103.07 85.532C2103.66 88.16 2103.37 90.788 2102.2 93.416C2101.03 95.752 2099.28 97.504 2096.94 98.672C2096.36 101.008 2094.9 102.76 2092.56 103.928C2090.23 105.096 2087.45 105.534 2084.24 105.242C2081.32 104.95 2078.4 103.636 2075.48 101.3C2064.09 91.372 2051.68 84.072 2038.25 79.4C2024.82 74.436 2009.2 71.954 1991.38 71.954C1972.4 71.954 1954.59 75.75 1937.95 83.342C1921.6 90.934 1907.14 101.3 1894.59 114.44C1882.03 127.58 1872.1 142.764 1864.8 159.992C1857.79 177.22 1854.29 195.47 1854.29 214.742C1854.29 234.598 1857.79 253.14 1864.8 270.368C1872.1 287.596 1882.03 302.78 1894.59 315.92C1907.14 329.06 1921.6 339.426 1937.95 347.018C1954.59 354.318 1972.4 357.968 1991.38 357.968C2007.44 357.968 2022.63 355.34 2036.94 350.084C2051.24 344.828 2064.82 337.236 2077.67 327.308C2081.17 324.388 2084.82 323.22 2088.62 323.804C2092.71 324.388 2096.21 326.14 2099.13 329.06C2102.05 331.98 2103.51 335.776 2103.51 340.448C2103.51 342.784 2103.07 344.974 2102.2 347.018C2101.61 348.77 2100.45 350.668 2098.69 352.712C2083.8 366.436 2067.16 376.218 2048.76 382.058C2030.37 387.606 2011.24 390.38 1991.38 390.38Z" fill="white"/>
</svg>
