<svg width="471" height="443" viewBox="0 0 471 443" fill="none" xmlns="http://www.w3.org/2000/svg">
<path d="M324.628 227.5C324.628 286.199 313.904 338.979 296.879 376.803C279.537 415.331 257.126 435.5 235.128 435.5C213.131 435.5 190.72 415.331 173.378 376.803C156.353 338.979 145.628 286.199 145.628 227.5C145.628 168.801 156.353 116.021 173.378 78.1969C190.72 39.6694 213.131 19.5 235.128 19.5C257.126 19.5 279.537 39.6694 296.879 78.1969C313.904 116.021 324.628 168.801 324.628 227.5Z" stroke="white" stroke-width="15"/>
<path d="M279.878 305.009C229.043 334.359 177.972 351.461 136.703 355.629C94.6665 359.874 65.9937 350.55 54.9951 331.5C43.9965 312.45 50.2581 282.957 74.9529 248.674C99.197 215.018 139.543 179.34 190.378 149.991C241.213 120.641 292.284 103.539 333.554 99.3712C375.59 95.126 404.263 104.45 415.262 123.5C426.26 142.55 419.999 172.044 395.304 206.326C371.06 239.982 330.713 275.66 279.878 305.009Z" stroke="white" stroke-width="15"/>
<path d="M279.878 305.009C229.043 334.359 177.972 351.461 136.703 355.629C94.6665 359.874 65.9937 350.55 54.9951 331.5C43.9965 312.45 50.2581 282.957 74.9529 248.674C99.197 215.018 139.543 179.34 190.378 149.991C241.213 120.641 292.284 103.539 333.554 99.3712C375.59 95.126 404.263 104.45 415.262 123.5C426.26 142.55 419.999 172.044 395.304 206.326C371.06 239.982 330.713 275.66 279.878 305.009Z" stroke="white" stroke-width="15"/>
<path d="M190.378 305.009C139.543 275.66 99.197 239.982 74.9529 206.326C50.2581 172.044 43.9965 142.55 54.9951 123.5C65.9937 104.45 94.6665 95.1259 136.703 99.3712C177.972 103.539 229.043 120.641 279.878 149.991C330.713 179.34 371.06 215.018 395.304 248.674C419.999 282.957 426.26 312.45 415.262 331.5C404.263 350.55 375.59 359.874 333.554 355.629C292.284 351.461 241.213 334.359 190.378 305.009Z" stroke="white" stroke-width="15"/>
<circle cx="235.128" cy="228" r="23" fill="white"/>
<circle cx="52" cy="299" r="23" fill="white"/>
<circle cx="418" cy="299" r="23" fill="white"/>
<circle cx="235" cy="23" r="23" fill="white"/>
</svg>
